<svg xmlns="http://www.w3.org/2000/svg" id="Ebene_1" data-name="Ebene 1" viewBox="0 0 648 158"><defs><style>.cls-1{fill:#0f0e0e;}.cls-1,.cls-2{fill-rule:evenodd;}.cls-2{fill:#1eb3fd;}</style></defs><path class="cls-1" d="M221.14,52c1.92,18.37,1.24,37.16,1.5,56h10c0-10.61-.14-21.29,0-31.88.08-8.14,6.83-15.93,14.2-16.74,11.51-1.27,14.29,6.92,14.29,17.48,0,10.29,0,20.57,0,31.05l10.32.08c0-10.62,0-21.23,0-31.84,0-6.29.39-8.06,3.89-11.69,10.19-10.58,24.39-4.51,24.73,12.39.21,10.18,0,20.66,0,31.07l10.32.06c0-19,5.9-59.84-24.76-57.27-10.87.91-13.53,5.5-18.39,8.58-3.78-3.86-8.09-8.52-17-8.68-7.24-.14-14.85,3.05-17.62,7.33-.83-2.32-1.13-3.4-1.78-5.81l-9.71-.1Zm379,.13h0c-3.79,0-7.48,0-11.65,0,2,4.62,7,15,9.42,20.26,3.1,6.67,6.29,13,9.38,19.65,4.59,9.82,8.17,10.17,1.51,19.91-4.6,6.73-7.53,8.49-16.76,12.27l2.08,8.39c8.37-1.58,15.76-6.76,20.89-13s8.3-13.11,12.19-21.8c3.54-7.9,7.36-15.42,10.83-23.14,3.1-6.91,6.91-15.64,10.36-22.4l-11.07-.09L619,92.8c-1.91-2.19-8.3-16.75-10.1-20.78-.59-1.32-1.14-2.55-1.64-3.7l0-.06-7.05-16.17Zm-82.36,56.77h0l.26-9c-7.54-1.3-10.91-3.1-13.16-9.49-3-8.68-1.31-51.88-1.76-65.19H492.94c-.49,17.2-.05,35.05-.06,52.32,0,8.56.89,15.51,4.69,21.6,5,8.07,11.79,9.09,20.21,9.76ZM468.32,28.47h0c-10,3.82-4.14,18.11,5.58,14.46,8.84-3.31,4.69-18.36-5.58-14.46Zm61.72.09h0C520,33.05,526,46,535.59,43s4.13-18.76-5.55-14.42Zm-2.14,79.3h10.32l-.1-55.7a87,87,0,0,0-10.21.16v55.53Zm-61.81.07h0l10.3.1-.05-55.82-10.18-.09-.07,55.81ZM548,60.63h11c.93,10.5-1.39,28.56,1.19,37.45,3.59,12.36,13.57,11.91,26,9.33l-1.06-8.83c-10.74,2-15.69,3.69-15.69-9.74,0-9-.42-19.3.13-28.21,3.18,0,15.11.29,17.78.29l-.14-8.8-17.75,0,0-19.58L559.17,37l0,15.17H548.06l-.1,8.51ZM333.21,83.16h0c-3.26-29.58,35.4-32.31,38.54-7,3.71,30-35.8,31.88-38.54,7Zm15.58-32.78h0c-15.85,1.45-27.72,15.56-25.62,33.42,4.35,37,63.64,32.38,58.61-8.35-1.95-15.82-15.09-26.71-33-25.07ZM415.53,59h0c10.72-2.33,22.7,5.11,23.09,14.89.59,14.4.48,23.93-13.68,26.08-29.61,4.48-31.83-36.11-9.41-41Zm22.11-2.46h0l.95.66,0-31.93,10.25-.08c.66,27.5-1,55.44.66,82.71l-9.62-.06-.83-5.59c-4.13,2.61-7,5.49-13.71,6.56-44.95,7.13-46.44-64.54-1.71-58.4C429.72,51.27,433.07,53.36,437.64,56.57Z"></path><path class="cls-2" d="M16.35,32.29v63.8a3.76,3.76,0,0,0,1.93,3.34l67.25,38.82a3.73,3.73,0,0,0,3.84,0l67.26-38.82a3.77,3.77,0,0,0,1.92-3.34V32.29A3.85,3.85,0,0,0,152.78,29L119.06,48.43a3.79,3.79,0,0,1-3.85,0l-8.63-5a3.85,3.85,0,0,1,0-6.66L169.13.67a3.75,3.75,0,0,1,3.85,0A3.75,3.75,0,0,1,174.9,4V105.51a3.77,3.77,0,0,1-1.92,3.33L89.37,157.11a3.77,3.77,0,0,1-3.84,0L1.92,108.84A3.77,3.77,0,0,1,0,105.51V4A3.75,3.75,0,0,1,1.92.67a3.75,3.75,0,0,1,3.85,0l98,56.58,28.89,16.68a3.77,3.77,0,0,1,1.92,3.33v10a3.85,3.85,0,0,1-5.77,3.33L22.12,29a3.85,3.85,0,0,0-5.77,3.33Z"></path></svg>